<?xml version="1.0" encoding="UTF-8"?>
<svg version="1.1" xmlns="http://www.w3.org/2000/svg" width="32" height="32">
<path d="M0 0 C3.04317386 -0.13558695 6.08025562 -0.23437239 9.125 -0.3125 C10.40890625 -0.3753418 10.40890625 -0.3753418 11.71875 -0.43945312 C16.02211667 -0.52221018 19.05725118 -0.45763242 22.51953125 2.2734375 C25.69923239 5.76860505 26.861532 8.30131932 27 13 C25.80025485 16.89917173 24.39120026 18.64605691 21.375 21.375 C17.04497755 23.45982562 13.72048246 23.69369097 9 23 C5.39429028 21.73132436 3.56376499 20.67651798 1.125 17.75 C-0.52590697 13.71444962 -0.52093058 10.02584115 0.5625 5.8125 C1.10212938 3.57689257 0.61127554 2.18700806 0 0 Z M10 7 C7.71271266 8.83883881 7.71271266 8.83883881 7.875 11.625 C7.91625 12.40875 7.9575 13.1925 8 14 C9.54571278 11.68143083 10.79618552 9.49361571 12 7 C11.34 7 10.68 7 10 7 Z M16 10 C15.34 10.66 14.68 11.32 14 12 C14 13.32 14 14.64 14 16 C16.0162233 15.28436734 16.0162233 15.28436734 18 14 C18.80528889 11.94999129 18.80528889 11.94999129 19 10 C18.01 10 17.02 10 16 10 Z " fill="#40A62C" transform="translate(2,1)"/>
<path d="M0 0 C5.28 0 10.56 0 16 0 C12.375 6.75 12.375 6.75 9 9 C8.52269038 12.72301503 8.8612739 13.79191085 11 17 C8.82575883 19.50037734 7.26954202 20.43628586 4 21 C0.47017638 16.47741349 -0.53009306 13.72500506 0 8 C0.185625 7.278125 0.37125 6.55625 0.5625 5.8125 C1.23661142 3.63348095 1.23661142 3.63348095 0 0 Z " fill="#039C25" transform="translate(2,1)"/>
<path d="M0 0 C7.92 0 15.84 0 24 0 C24.66 1.32 25.32 2.64 26 4 C19.74089603 7.99887198 14.3536121 8.65853243 7 8 C4.16675616 7.21653064 1.69779527 6.19902012 -1 5 C-0.67 3.35 -0.34 1.7 0 0 Z " fill="#47A62B" transform="translate(3,24)"/>
<path d="M0 0 C2.125 0.9375 2.125 0.9375 4 2 C1.53846154 5.81538462 1.53846154 5.81538462 -1.1875 6.75 C-1.785625 6.8325 -2.38375 6.915 -3 7 C-3.66 6.01 -4.32 5.02 -5 4 C-4.01 4 -3.02 4 -2 4 C-2 3.01 -2 2.02 -2 1 C-1.34 0.67 -0.68 0.34 0 0 Z " fill="#1EA426" transform="translate(9,15)"/>
<path d="M0 0 C2.31 0 4.62 0 7 0 C5.35 1.98 3.7 3.96 2 6 C1.01 5.67 0.02 5.34 -1 5 C-0.67 3.35 -0.34 1.7 0 0 Z " fill="#1B9F25" transform="translate(3,24)"/>
<path d="M0 0 C1.65 0 3.3 0 5 0 C3.1875 3 3.1875 3 1 6 C0.01 6 -0.98 6 -2 6 C-1.34 4.02 -0.68 2.04 0 0 Z " fill="#199F26" transform="translate(13,1)"/>
</svg>
